<svg xmlns="http://www.w3.org/2000/svg" width="40" height="28" fill="none"><path fill="#26272C" d="M8.795 18.852a7.97 7.97 0 0 1-3.45-.759 8.917 8.917 0 0 1-2.817-2.095 10.364 10.364 0 0 1-1.87-3.037A9.928 9.928 0 0 1 0 9.348c0-1.275.22-2.47.658-3.588a10.104 10.104 0 0 1 1.87-2.984A8.76 8.76 0 0 1 5.346.732C6.434.244 7.619 0 8.9 0c1.774 0 3.266.375 4.477 1.126 1.229.733 2.15 1.71 2.765 2.933l-2.265 1.623c-.491-1.013-1.193-1.772-2.106-2.278a5.89 5.89 0 0 0-2.95-.76c-.877 0-1.676.184-2.396.55a5.776 5.776 0 0 0-1.87 1.52 6.637 6.637 0 0 0-1.158 2.172 8.099 8.099 0 0 0-.395 2.54c0 .943.15 1.824.448 2.645.298.82.72 1.545 1.264 2.173a5.972 5.972 0 0 0 1.922 1.44c.737.35 1.536.524 2.396.524a5.884 5.884 0 0 0 2.897-.76c.93-.523 1.8-1.3 2.607-2.33v2.985c-1.633 1.833-3.546 2.75-5.74 2.75Zm5.451-7.357H8.821V9.32h5.715l-.178 1.873.232 2.617 1.27 3.361.861 1.55-1.639-.935-.836-6.292ZM24.426 18.689 25 16.312l1.27-4.796-1.844-3.442V.164h6.563c1.997 0 3.663.418 5 1.252a7.63 7.63 0 0 1 2.995 3.34C39.661 6.148 40 7.696 40 9.4c0 1.879-.373 3.514-1.12 4.905a7.79 7.79 0 0 1-3.125 3.236c-1.355.765-2.943 1.148-4.766 1.148h-6.563ZM37.031 9.4c0-1.304-.243-2.452-.73-3.444-.468-1.009-1.154-1.791-2.057-2.348-.885-.574-1.97-.86-3.255-.86h-3.646v13.358h3.646c1.302 0 2.396-.296 3.281-.887a5.654 5.654 0 0 0 2.058-2.4c.468-1.01.703-2.149.703-3.419Z"/><g filter="url(#a)"><path fill="url(#b)" fill-rule="evenodd" d="M19.96 20.328a7.172 7.172 0 1 0 0-14.344 7.172 7.172 0 0 0 0 14.344Zm.019-2.388a5.48 5.48 0 1 0 0-10.96 5.48 5.48 0 0 0 0 10.96Z" clip-rule="evenodd"/></g><defs><linearGradient id="b" x1="20" x2="20" y1="4.262" y2="21.926" gradientUnits="userSpaceOnUse"><stop stop-color="#26C0F1"/><stop offset="1" stop-color="#6F35CE"/></linearGradient><filter id="a" width="26.344" height="26.344" x="6.787" y=".984" color-interpolation-filters="sRGB" filterUnits="userSpaceOnUse"><feFlood flood-opacity="0" result="BackgroundImageFix"/><feColorMatrix in="SourceAlpha" result="hardAlpha" values="0 0 0 0 0 0 0 0 0 0 0 0 0 0 0 0 0 0 127 0"/><feOffset dy="1"/><feGaussianBlur stdDeviation="3"/><feComposite in2="hardAlpha" operator="out"/><feColorMatrix values="0 0 0 0 1 0 0 0 0 1 0 0 0 0 1 0 0 0 0.4 0"/><feBlend in2="BackgroundImageFix" result="effect1_dropShadow_580_364"/><feBlend in="SourceGraphic" in2="effect1_dropShadow_580_364" result="shape"/></filter></defs></svg>