<svg xmlns="http://www.w3.org/2000/svg" width="34" height="34" fill="none"><path fill="#000" d="M17 .333C7.8.333.333 7.8.333 17 .333 26.2 7.8 33.667 17 33.667c9.2 0 16.667-7.467 16.667-16.667C33.667 7.8 26.2.333 17 .333Zm7.733 11.334C24.483 14.3 23.4 20.7 22.85 23.65c-.233 1.25-.7 1.667-1.133 1.717-.967.083-1.7-.634-2.634-1.25-1.466-.967-2.3-1.567-3.716-2.5-1.65-1.084-.584-1.684.366-2.65.25-.25 4.517-4.133 4.6-4.483a.334.334 0 0 0-.083-.3c-.1-.084-.233-.05-.35-.034-.15.034-2.483 1.583-7.033 4.65-.667.45-1.267.683-1.8.667-.6-.017-1.734-.333-2.584-.617-1.05-.333-1.866-.517-1.8-1.1.034-.3.45-.6 1.234-.916 4.866-2.117 8.1-3.517 9.716-4.184 4.634-1.933 5.584-2.267 6.217-2.267.133 0 .45.034.65.2a.661.661 0 0 1 .233.45c-.016.1.017.4 0 .634Z"/></svg>