<svg xmlns="http://www.w3.org/2000/svg" width="37" height="34" fill="none"><path fill="#000" d="M2.6 2.82C0 5.14 0 8.873 0 16.34v1.32c0 7.467 0 11.2 2.6 13.52 2.602 2.32 6.788 2.32 15.16 2.32h1.48c8.372 0 12.558 0 15.16-2.32C37 28.86 37 25.127 37 17.66v-1.32c0-7.467 0-11.2-2.6-13.52C31.797.5 27.611.5 19.24.5h-1.48C9.388.5 5.202.5 2.6 2.82Zm3.644 7.718h4.224c.139 6.297 3.253 8.965 5.72 9.515v-9.516h3.977v5.432c2.436-.234 4.995-2.709 5.858-5.431h3.978a9.936 9.936 0 0 1-1.905 3.927 11.33 11.33 0 0 1-3.506 2.92 12.043 12.043 0 0 1 3.997 2.838 10.487 10.487 0 0 1 2.339 4.05h-4.378c-.404-1.287-1.225-2.44-2.36-3.313-1.136-.874-2.535-1.428-4.023-1.595v4.909h-.478c-8.433 0-13.243-5.157-13.443-13.737Z"/></svg>