<svg xmlns="http://www.w3.org/2000/svg" width="34" height="34" fill="none"><path fill="#000" d="M28.75 5.183A16.36 16.36 0 0 0 17.067.333C7.967.333.55 7.75.55 16.85c0 2.916.767 5.75 2.2 8.25L.417 33.666l8.75-2.3a16.52 16.52 0 0 0 7.9 2.017c9.1 0 16.516-7.417 16.516-16.517 0-4.416-1.716-8.566-4.833-11.683Zm-11.683 25.4a13.77 13.77 0 0 1-7-1.917l-.5-.3-5.2 1.367 1.383-5.067-.333-.516a13.773 13.773 0 0 1-2.1-7.3c0-7.567 6.166-13.734 13.733-13.734 3.667 0 7.117 1.434 9.7 4.034a13.639 13.639 0 0 1 4.017 9.716c.033 7.567-6.134 13.717-13.7 13.717ZM24.6 20.316c-.417-.2-2.45-1.2-2.817-1.35-.383-.133-.65-.2-.933.2-.283.417-1.067 1.35-1.3 1.617-.233.283-.483.317-.9.1-.417-.2-1.75-.65-3.317-2.05-1.233-1.1-2.05-2.45-2.3-2.867-.233-.416-.033-.633.184-.85.183-.183.416-.483.616-.716.2-.234.284-.417.417-.684.133-.283.067-.516-.033-.716-.1-.2-.934-2.234-1.267-3.067-.333-.8-.683-.7-.933-.717h-.8c-.284 0-.717.1-1.1.517-.367.417-1.434 1.417-1.434 3.45 0 2.033 1.484 4 1.684 4.267.2.283 2.916 4.45 7.05 6.233.983.433 1.75.683 2.35.867.983.316 1.883.266 2.6.166.8-.116 2.45-1 2.783-1.966.35-.967.35-1.784.233-1.967-.116-.183-.366-.267-.783-.467Z"/></svg>